<?xml version="1.0"?><svg fill="#000000" xmlns="http://www.w3.org/2000/svg"  viewBox="0 0 50 50" width="500px" height="500px">    <path d="M 9 4 C 6.243 4 4 6.243 4 9 L 4 41 C 4 43.757 6.243 46 9 46 L 41 46 C 43.757 46 46 43.757 46 41 L 46 9 C 46 6.243 43.757 4 41 4 L 9 4 z M 9 6 L 41 6 C 42.654 6 44 7.346 44 9 L 44 41 C 44 41.196 43.977406 41.386266 43.941406 41.572266 C 39.272502 37.320668 32.196614 34.337832 26.041016 34.029297 C 26.137304 31.228488 26.63568 28.183224 27.720703 25.349609 C 28.740703 25.809609 29.729922 26 30.669922 26 C 33.529922 26 35.870391 24.209453 36.900391 22.939453 C 40.950391 18.289453 41 11.379844 41 11.089844 C 41 10.579844 40.609375 10.149844 40.109375 10.089844 C 35.229375 9.5698437 28.589844 11.229922 25.339844 15.419922 C 24.249844 16.839922 23.810312 18.469375 24.070312 20.109375 C 24.080313 20.159375 24.180781 21.050703 24.800781 22.220703 C 26.810781 18.550703 29.840234 16.069297 33.740234 15.029297 C 33.830234 15.009297 33.91 15 34 15 C 34.08 15 34.160469 15.009297 34.230469 15.029297 C 34.250469 15.029297 34.259531 15.029063 34.269531 15.039062 C 34.339531 15.059062 34.410703 15.089141 34.470703 15.119141 C 34.490703 15.119141 34.499766 15.130625 34.509766 15.140625 C 34.579766 15.180625 34.639219 15.229063 34.699219 15.289062 C 34.759219 15.349062 34.819375 15.410234 34.859375 15.490234 C 34.869375 15.500234 34.880859 15.509531 34.880859 15.519531 C 34.920859 15.589531 34.950703 15.660234 34.970703 15.740234 C 34.990703 15.830234 35 15.91 35 16 C 35 16.08 34.990703 16.160469 34.970703 16.230469 C 34.970703 16.250469 34.970937 16.259531 34.960938 16.269531 C 34.940938 16.339531 34.910859 16.410703 34.880859 16.470703 C 34.880859 16.490703 34.869375 16.499766 34.859375 16.509766 C 34.819375 16.579766 34.770938 16.639219 34.710938 16.699219 C 34.650938 16.759219 34.589766 16.819375 34.509766 16.859375 L 34.5 16.869141 C 34.46 16.889141 34.420625 16.909688 34.390625 16.929688 C 34.350625 16.939687 34.299766 16.960703 34.259766 16.970703 C 30.619766 17.930703 27.880156 20.300859 26.160156 23.880859 C 26.130156 23.920859 26.109609 23.959766 26.099609 24.009766 C 25.460955 25.553563 24.989515 27.162758 24.652344 28.771484 C 24.080814 27.796567 23.570312 27.119141 23.570312 27.119141 C 22.370312 25.939141 20.6 25 18 25 C 17.87 25 17.750625 24.979688 17.640625 24.929688 C 17.590625 24.909688 17.54 24.889375 17.5 24.859375 C 17.46 24.839375 17.410859 24.809297 17.380859 24.779297 C 17.340859 24.749297 17.299531 24.709688 17.269531 24.679688 C 17.099531 24.499687 17 24.26 17 24 C 17 23.82 17.050625 23.65 17.140625 23.5 C 17.160625 23.46 17.190703 23.410859 17.220703 23.380859 C 17.250703 23.340859 17.290312 23.299531 17.320312 23.269531 C 17.500312 23.099531 17.74 23 18 23 C 20.62 23 22.600313 23.829297 24.070312 25.029297 C 24.040312 23.689297 23.459688 22.610781 23.429688 22.550781 C 22.859688 21.390781 21.570937 19.879531 18.710938 19.269531 C 14.910937 18.459531 11.690781 20.039375 11.550781 20.109375 C 11.150781 20.309375 10.929531 20.760938 11.019531 21.210938 C 11.069531 21.450937 12.330469 27.230937 16.230469 29.210938 C 17.430469 29.830938 18.479141 30.050781 19.369141 30.050781 C 20.889141 30.050781 21.910156 29.400469 22.410156 28.980469 C 23.560156 30.700469 24.029062 32.249297 24.039062 32.279297 C 24.056509 32.338347 24.090595 32.386457 24.117188 32.439453 C 24.071655 32.979701 24.037898 33.51362 24.021484 34.039062 C 15.682755 34.440463 8.3512513 39.798545 6.0722656 41.638672 C 6.0272656 41.431672 6 41.22 6 41 L 6 9 C 6 7.346 7.346 6 9 6 z"/></svg>